<svg width="1108" height="1324" viewBox="0 0 1108 1324" fill="none" xmlns="http://www.w3.org/2000/svg">
<g clip-path="url(#clip0_2_3666)">
<rect width="1108" height="1324" fill="white"/>
<path d="M146.062 701H131.562C131.229 701 131.062 700.792 131.062 700.375L131.312 612.438C131.312 612.104 131.479 611.938 131.812 611.938H157.688C162.312 611.938 166.562 613.062 170.438 615.312C174.312 617.562 177.396 620.583 179.688 624.375C182.021 628.167 183.188 632.458 183.188 637.25C183.188 640.375 182.708 643.208 181.75 645.75C180.792 648.292 179.667 650.438 178.375 652.188C177.125 653.938 175.979 655.229 174.938 656.062C179.562 661.188 181.875 667.208 181.875 674.125L182 700.375C182 700.792 181.792 701 181.375 701H166.875C166.542 701 166.375 700.875 166.375 700.625V674.125C166.375 671.042 165.292 668.375 163.125 666.125C160.958 663.875 158.292 662.75 155.125 662.75H146.688L146.562 700.375C146.562 700.792 146.396 701 146.062 701ZM157.688 627.25H146.688V647.375H157.688C160.312 647.375 162.646 646.396 164.688 644.438C166.771 642.479 167.812 640.083 167.812 637.25C167.812 634.542 166.812 632.208 164.812 630.25C162.812 628.25 160.438 627.25 157.688 627.25ZM234.688 701H193.312C192.979 701 192.812 700.792 192.812 700.375L192.938 612.438C192.938 612.104 193.104 611.938 193.438 611.938H234.562C234.896 611.938 235.062 612.146 235.062 612.562V626.875C235.062 627.208 234.896 627.375 234.562 627.375H208.312V647.375H234.562C234.896 647.375 235.062 647.542 235.062 647.875L235.188 662.375C235.188 662.708 235.021 662.875 234.688 662.875H208.312V685.25H234.688C235.021 685.25 235.188 685.458 235.188 685.875V700.5C235.188 700.833 235.021 701 234.688 701ZM268.312 702.25C263.771 702.25 259.583 701.083 255.75 698.75C251.958 696.417 248.917 693.312 246.625 689.438C244.375 685.521 243.25 681.229 243.25 676.562V670.688C243.25 670.229 243.458 670 243.875 670H258.25C258.583 670 258.75 670.229 258.75 670.688V676.562C258.75 679.354 259.688 681.771 261.562 683.812C263.438 685.812 265.688 686.812 268.312 686.812C270.979 686.812 273.25 685.792 275.125 683.75C277 681.667 277.938 679.271 277.938 676.562C277.938 673.438 275.896 670.708 271.812 668.375C271.146 667.958 270.271 667.458 269.188 666.875C268.146 666.25 266.896 665.542 265.438 664.75C263.979 663.958 262.562 663.188 261.188 662.438C259.812 661.646 258.479 660.896 257.188 660.188C252.521 657.438 249.042 654 246.75 649.875C244.5 645.708 243.375 641.042 243.375 635.875C243.375 631.125 244.542 626.833 246.875 623C249.208 619.208 252.25 616.208 256 614C259.792 611.75 263.896 610.625 268.312 610.625C272.854 610.625 277.021 611.75 280.812 614C284.604 616.292 287.625 619.333 289.875 623.125C292.167 626.917 293.312 631.167 293.312 635.875V646.375C293.312 646.708 293.146 646.875 292.812 646.875H278.438C278.104 646.875 277.938 646.708 277.938 646.375L277.812 635.875C277.812 632.875 276.875 630.438 275 628.562C273.125 626.688 270.896 625.75 268.312 625.75C265.688 625.75 263.438 626.75 261.562 628.75C259.688 630.75 258.75 633.125 258.75 635.875C258.75 638.667 259.333 641 260.5 642.875C261.708 644.75 263.896 646.542 267.062 648.25C267.396 648.417 268.167 648.833 269.375 649.5C270.583 650.167 271.917 650.917 273.375 651.75C274.875 652.542 276.229 653.271 277.438 653.938C278.646 654.562 279.375 654.938 279.625 655.062C283.875 657.438 287.229 660.354 289.688 663.812C292.188 667.271 293.438 671.521 293.438 676.562C293.438 681.438 292.312 685.812 290.062 689.688C287.771 693.562 284.729 696.625 280.938 698.875C277.146 701.125 272.938 702.25 268.312 702.25ZM325.875 702.25C321.375 702.25 317.208 701.083 313.375 698.75C309.542 696.417 306.479 693.292 304.188 689.375C301.938 685.417 300.812 681.104 300.812 676.438L301.062 612.438C301.062 612.104 301.229 611.938 301.562 611.938H315.938C316.271 611.938 316.438 612.104 316.438 612.438V676.438C316.438 679.312 317.354 681.771 319.188 683.812C321.021 685.812 323.25 686.812 325.875 686.812C328.625 686.812 330.917 685.812 332.75 683.812C334.583 681.771 335.5 679.312 335.5 676.438V612.438C335.5 612.104 335.667 611.938 336 611.938H350.375C350.708 611.938 350.875 612.104 350.875 612.438L351.125 676.438C351.125 681.146 350 685.479 347.75 689.438C345.458 693.354 342.417 696.479 338.625 698.812C334.833 701.104 330.583 702.25 325.875 702.25ZM403.062 701H361.688C361.354 701 361.188 700.792 361.188 700.375L361.312 612.562C361.312 612.146 361.521 611.938 361.938 611.938H376.188C376.604 611.938 376.812 612.146 376.812 612.562L376.688 685.25H403.062C403.479 685.25 403.688 685.458 403.688 685.875V700.375C403.688 700.792 403.479 701 403.062 701ZM439.375 701H424.938C424.562 701 424.375 700.792 424.375 700.375V627.375H407.75C407.333 627.375 407.125 627.167 407.125 626.75L407.25 612.438C407.25 612.104 407.417 611.938 407.75 611.938H456.375C456.833 611.938 457.062 612.104 457.062 612.438V626.75C457.062 627.167 456.896 627.375 456.562 627.375H439.75L439.875 700.375C439.875 700.792 439.708 701 439.375 701ZM510.5 701H497.688C497.021 701 496.688 700.708 496.688 700.125L496.562 612.938C496.562 612.271 496.896 611.938 497.562 611.938H509.125L530.75 662.375L530.125 612.938C530.125 612.271 530.5 611.938 531.25 611.938H543.938C544.438 611.938 544.688 612.271 544.688 612.938L544.812 700.25C544.812 700.75 544.604 701 544.188 701H532.938L510.75 653.875L511.688 700C511.688 700.667 511.292 701 510.5 701ZM579.625 702.25C575.083 702.25 570.896 701.083 567.062 698.75C563.271 696.417 560.208 693.312 557.875 689.438C555.583 685.521 554.438 681.229 554.438 676.562L554.562 636C554.562 631.25 555.708 626.979 558 623.188C560.25 619.354 563.292 616.292 567.125 614C570.958 611.667 575.125 610.5 579.625 610.5C584.292 610.5 588.479 611.646 592.188 613.938C595.938 616.229 598.938 619.312 601.188 623.188C603.479 627.021 604.625 631.292 604.625 636L604.75 676.562C604.75 681.229 603.625 685.5 601.375 689.375C599.083 693.292 596.042 696.417 592.25 698.75C588.458 701.083 584.25 702.25 579.625 702.25ZM579.625 686.812C582.208 686.812 584.458 685.771 586.375 683.688C588.292 681.562 589.25 679.188 589.25 676.562L589.125 636C589.125 633.167 588.229 630.771 586.438 628.812C584.646 626.854 582.375 625.875 579.625 625.875C577 625.875 574.75 626.833 572.875 628.75C571 630.667 570.062 633.083 570.062 636V676.562C570.062 679.354 571 681.771 572.875 683.812C574.75 685.812 577 686.812 579.625 686.812ZM641.75 701H627.312C626.938 701 626.75 700.792 626.75 700.375V627.375H610.125C609.708 627.375 609.5 627.167 609.5 626.75L609.625 612.438C609.625 612.104 609.792 611.938 610.125 611.938H658.75C659.208 611.938 659.438 612.104 659.438 612.438V626.75C659.438 627.167 659.271 627.375 658.938 627.375H642.125L642.25 700.375C642.25 700.792 642.083 701 641.75 701ZM713.938 701H699.562C699.146 701 698.938 700.792 698.938 700.375L699.188 612.438C699.188 612.104 699.354 611.938 699.688 611.938H740.688C741.104 611.938 741.312 612.104 741.312 612.438V626.875C741.312 627.208 741.146 627.375 740.812 627.375H714.562V647.25H740.812C741.146 647.25 741.312 647.458 741.312 647.875L741.438 662.375C741.438 662.708 741.229 662.875 740.812 662.875H714.562V700.375C714.562 700.792 714.354 701 713.938 701ZM776.5 702.25C771.958 702.25 767.771 701.083 763.938 698.75C760.146 696.417 757.083 693.312 754.75 689.438C752.458 685.521 751.312 681.229 751.312 676.562L751.438 636C751.438 631.25 752.583 626.979 754.875 623.188C757.125 619.354 760.167 616.292 764 614C767.833 611.667 772 610.5 776.5 610.5C781.167 610.5 785.354 611.646 789.062 613.938C792.812 616.229 795.812 619.312 798.062 623.188C800.354 627.021 801.5 631.292 801.5 636L801.625 676.562C801.625 681.229 800.5 685.5 798.25 689.375C795.958 693.292 792.917 696.417 789.125 698.75C785.333 701.083 781.125 702.25 776.5 702.25ZM776.5 686.812C779.083 686.812 781.333 685.771 783.25 683.688C785.167 681.562 786.125 679.188 786.125 676.562L786 636C786 633.167 785.104 630.771 783.312 628.812C781.521 626.854 779.25 625.875 776.5 625.875C773.875 625.875 771.625 626.833 769.75 628.75C767.875 630.667 766.938 633.083 766.938 636V676.562C766.938 679.354 767.875 681.771 769.75 683.812C771.625 685.812 773.875 686.812 776.5 686.812ZM834.875 702.25C830.375 702.25 826.208 701.083 822.375 698.75C818.542 696.417 815.479 693.292 813.188 689.375C810.938 685.417 809.812 681.104 809.812 676.438L810.062 612.438C810.062 612.104 810.229 611.938 810.562 611.938H824.938C825.271 611.938 825.438 612.104 825.438 612.438V676.438C825.438 679.312 826.354 681.771 828.188 683.812C830.021 685.812 832.25 686.812 834.875 686.812C837.625 686.812 839.917 685.812 841.75 683.812C843.583 681.771 844.5 679.312 844.5 676.438V612.438C844.5 612.104 844.667 611.938 845 611.938H859.375C859.708 611.938 859.875 612.104 859.875 612.438L860.125 676.438C860.125 681.146 859 685.479 856.75 689.438C854.458 693.354 851.417 696.479 847.625 698.812C843.833 701.104 839.583 702.25 834.875 702.25ZM884.125 701H871.312C870.646 701 870.312 700.708 870.312 700.125L870.188 612.938C870.188 612.271 870.521 611.938 871.188 611.938H882.75L904.375 662.375L903.75 612.938C903.75 612.271 904.125 611.938 904.875 611.938H917.562C918.062 611.938 918.312 612.271 918.312 612.938L918.438 700.25C918.438 700.75 918.229 701 917.812 701H906.562L884.375 653.875L885.312 700C885.312 700.667 884.917 701 884.125 701ZM953.125 700.875L930.188 701C929.771 701 929.562 700.792 929.562 700.375L929.812 612.438C929.812 612.104 929.979 611.938 930.312 611.938L954.25 611.812C959 611.688 963.292 612.771 967.125 615.062C971 617.354 974.083 620.458 976.375 624.375C978.708 628.25 979.875 632.542 979.875 637.25V674C979.875 678.917 978.688 683.417 976.312 687.5C973.896 691.542 970.688 694.771 966.688 697.188C962.688 699.562 958.167 700.792 953.125 700.875ZM954.25 627.125L945.312 627.25L945.188 685.25H953.125C956.292 685.25 958.958 684.146 961.125 681.938C963.292 679.729 964.375 677.083 964.375 674V637.125C964.375 634.417 963.375 632.062 961.375 630.062C959.375 628.021 957 627.042 954.25 627.125Z" fill="#2563EB"/>
<path fill-rule="evenodd" clip-rule="evenodd" d="M682.968 168.756C682.968 188.595 670.22 204.677 654.495 204.677C638.771 204.677 626.023 188.595 626.023 168.756C626.023 148.917 638.771 132.834 654.495 132.834C670.22 132.834 682.968 148.917 682.968 168.756" fill="#19141E"/>
<path d="M615.591 311.059L614.4 269.801C614.4 269.801 664.389 273.793 675.083 268.222C675.083 268.222 688.153 200.686 672.564 163.287L672.249 161.831L566.758 149.456L560.844 210.167C557.29 199.655 527.963 187.735 520.297 202.788C503.684 235.406 563.085 257.369 563.085 257.369L557.054 311.554" fill="#E8E8E8"/>
<path opacity="0.398926" fill-rule="evenodd" clip-rule="evenodd" d="M614.4 269.801L580.691 262.552L614.239 285.28L614.4 269.801Z" fill="black"/>
<path fill-rule="evenodd" clip-rule="evenodd" d="M641.347 209.396L652.995 237.956L639.035 238.135L641.347 209.396Z" fill="#405FD3"/>
<path fill-rule="evenodd" clip-rule="evenodd" d="M628.925 210.495C629.619 214.342 627.071 218.023 623.237 218.718C619.402 219.414 615.731 216.86 615.038 213.015C614.344 209.168 616.89 205.487 620.725 204.791C624.561 204.096 628.23 206.649 628.925 210.495" fill="#0D0B6D"/>
<path fill-rule="evenodd" clip-rule="evenodd" d="M668.067 210.495C668.761 214.342 666.214 218.023 662.38 218.718C658.545 219.414 654.873 216.86 654.18 213.015C653.486 209.168 656.032 205.487 659.868 204.791C663.703 204.096 667.373 206.649 668.067 210.495" fill="#0D0B6D"/>
<path d="M568.678 220.529C558.676 203.361 544.204 198.125 537.709 196.59C535.118 189.08 533.143 180.37 531.756 171.107C528.034 146.316 546.007 123.698 560.524 117.203C575.219 110.63 600.557 101.521 637.645 113.886C662.579 122.204 678.517 102.289 693.189 110.795C718.261 125.332 694.941 188.98 631.366 172.811C585.891 161.245 584.722 164.146 584.332 172.554C583.071 199.729 578.846 215.717 568.678 220.529V220.529Z" fill="#2F2F3D"/>
<path fill-rule="evenodd" clip-rule="evenodd" d="M621.955 239.196C621.955 239.196 626.437 247.364 636.124 247.17Z" fill="white"/>
<path d="M621.955 239.196C621.955 239.196 626.437 247.364 636.124 247.17" stroke="#252535" stroke-width="4"/>
<path fill-rule="evenodd" clip-rule="evenodd" d="M637.964 210.837C637.964 219.778 630.735 227.026 621.819 227.026C612.904 227.026 605.676 219.778 605.676 210.837C605.676 201.895 612.904 194.646 621.819 194.646C630.735 194.646 637.964 201.895 637.964 210.837Z" stroke="#252535" stroke-width="4"/>
<path fill-rule="evenodd" clip-rule="evenodd" d="M678.612 210.837C678.612 219.778 671.384 227.026 662.469 227.026C653.553 227.026 646.324 219.778 646.324 210.837C646.324 201.895 653.553 194.646 662.469 194.646C671.384 194.646 678.612 201.895 678.612 210.837Z" stroke="#252535" stroke-width="4"/>
<path d="M645.01 211.587H638.029" stroke="#252535" stroke-width="4"/>
<path d="M605.675 210.837H565.795" stroke="#252535" stroke-width="4"/>
<path fill-rule="evenodd" clip-rule="evenodd" d="M339.359 1119.32L381.457 1080.68L366.832 1041.6L276.738 1108.56L349.72 1236.08C349.72 1236.08 352.066 1204.39 348.249 1169.28C345.613 1145.03 339.359 1119.32 339.359 1119.32ZM744.997 1203.74L735.383 1172.72L694.677 1174.87L728.556 1260.07L858.69 1184.6C820.072 1172.9 744.997 1203.74 744.997 1203.74Z" fill="#0D0B6D"/>
<path fill-rule="evenodd" clip-rule="evenodd" d="M370.846 1090.53L366.217 1041.56L314.363 1080.84L339.359 1119.32L370.846 1090.53ZM737.077 1177.96L696.833 1181.59L711.689 1217.65L744.998 1203.74L737.077 1177.96Z" fill="#E8E8E8"/>
<path d="M660.817 684.234L773.083 1186.63L742.161 1194.53H742.147L706.15 1203.74L705.97 1203.78L693.51 1206.96C693.51 1206.96 636.313 1026.37 585.96 865.256C573.707 885.224 559.906 904.957 544.375 924.154C434.033 1060.53 366.519 1118.82 366.519 1118.82L356.479 1103.67L356.451 1103.63L332.32 1067.24L314.867 1040.92C314.867 1040.92 465.965 898.177 533.949 697.378C521.999 658.284 513.716 630.377 511.587 621.447C499.404 570.527 499.155 547.196 499.155 545.336H629.785L682.17 545.336C680.261 578.52 674.992 627.869 660.817 684.232L660.817 684.234Z" fill="#19141E"/>
<path fill-rule="evenodd" clip-rule="evenodd" d="M773.084 1186.63L742.162 1194.53H742.148L706.151 1203.74L705.971 1203.78L693.511 1206.96C693.511 1206.96 636.314 1026.36 585.961 865.255C566.309 802.36 547.709 742.441 533.95 697.378C522.001 658.284 513.717 630.377 511.589 621.447C499.405 570.527 499.156 547.196 499.156 545.336H629.786L660.818 684.232L773.084 1186.63Z" fill="white" fill-opacity="0.1"/>
<path fill-rule="evenodd" clip-rule="evenodd" d="M394.506 455.435C397.593 496.868 432.765 517.342 460.226 527.071L458.08 538.501C454.742 556.288 469.625 572.554 489.242 572.554H668.809C688.068 572.554 702.854 556.848 700.11 539.308L698.337 527.977C726.732 518.704 766.087 499.429 765.098 463.981C763.57 409.179 703.23 357.624 671.146 334.018C659.536 321.512 642.88 316.555 618.94 309.431L618.939 309.431C616.229 308.625 613.427 307.791 610.528 306.915C610.528 306.915 533.495 294.423 494.49 312.626C484.261 317.399 475.845 324.215 468.937 331.956C437.157 357.566 390.688 404.177 394.506 455.435Z" fill="#2563EB"/>
<path opacity="0.199009" d="M673.531 420.925L671.275 422.002L672.725 425.042L675.215 422.773L673.531 420.925ZM651.886 375.565L654.142 374.488L653.065 372.232L650.809 373.309L651.886 375.565ZM647.373 377.718L646.297 375.462L644.04 376.539L645.117 378.795L647.373 377.718ZM670.469 426.118L668.213 427.195L668.213 427.195L670.469 426.118ZM671.919 429.158L669.663 430.234L671.114 433.274L673.603 431.006L671.919 429.158ZM674.409 426.89L672.725 425.042L674.409 426.89ZM680.439 421.395L682.123 423.243L683.971 421.56L682.287 419.712L680.439 421.395ZM677.072 417.699L678.92 416.016L677.236 414.168L675.388 415.851L677.072 417.699ZM674.982 423.965L677.238 422.888L677.238 422.888L674.982 423.965ZM673.531 420.925L675.787 419.849L674.337 416.809L671.847 419.077L673.531 420.925ZM675.228 424.481L676.305 426.738L678.561 425.661L677.484 423.405L675.228 424.481ZM673.128 425.483L672.051 423.227L669.012 424.678L671.28 427.167L673.128 425.483ZM674.409 426.89L676.093 428.738L677.941 427.054L676.257 425.206L674.409 426.89ZM651.313 447.932L649.465 449.616L651.149 451.464L652.997 449.78L651.313 447.932ZM647.946 444.236L646.262 442.388L644.414 444.072L646.098 445.92L647.946 444.236ZM671.042 423.194L672.725 425.042L672.725 425.042L671.042 423.194ZM505.889 420.909L503.651 419.795L503.651 419.795L505.889 420.909ZM533.345 365.778L535.583 366.893L536.697 364.655L534.46 363.54L533.345 365.778ZM504.776 423.145L503.663 425.384L505.9 426.495L507.014 424.26L504.776 423.145ZM502.539 422.034L503.651 419.795L503.651 419.795L502.539 422.034ZM486.996 414.312L484.757 413.199L483.645 415.438L485.884 416.551L486.996 414.312ZM489.221 409.834L490.333 407.595L488.094 406.483L486.982 408.721L489.221 409.834ZM502.527 416.445L501.415 418.684L503.651 419.795L504.765 417.559L502.527 416.445ZM528.869 363.549L529.984 361.311L527.746 360.197L526.631 362.435L528.869 363.549ZM504.764 417.556L505.876 415.317L504.764 417.556ZM502.527 416.445L503.639 414.206L501.403 413.095L500.289 415.33L502.527 416.445ZM557.677 443.845L559.915 444.958L561.028 442.719L558.789 441.606L557.677 443.845ZM555.452 448.323L554.339 450.562L556.578 451.674L557.691 449.435L555.452 448.323ZM504.776 423.145L505.888 420.906L503.651 419.795L502.538 422.031L504.776 423.145ZM504.499 423.701L503.384 425.939L505.622 427.054L506.737 424.816L504.499 423.701ZM500.023 421.473L497.785 420.358L496.671 422.596L498.909 423.71L500.023 421.473ZM501.414 418.681L499.176 417.566L499.176 417.566L501.414 418.681ZM675.787 419.849L654.142 374.488L649.629 376.642L671.275 422.002L675.787 419.849ZM650.809 373.309L646.297 375.462L648.45 379.975L652.962 377.821L650.809 373.309ZM645.117 378.795L668.213 427.195L672.725 425.042L649.629 376.642L645.117 378.795ZM668.213 427.195L669.663 430.234L674.176 428.081L672.725 425.042L668.213 427.195ZM673.603 431.006L676.093 428.738L672.725 425.042L670.236 427.31L673.603 431.006ZM676.093 428.738L682.123 423.243L678.756 419.547L672.725 425.042L676.093 428.738ZM682.287 419.712L678.92 416.016L675.224 419.383L678.591 423.079L682.287 419.712ZM675.388 415.851L671.847 419.077L675.215 422.773L678.756 419.547L675.388 415.851ZM677.238 422.888L675.787 419.849L671.275 422.002L672.725 425.042L677.238 422.888ZM677.484 423.405L677.238 422.888L672.725 425.042L672.972 425.558L677.484 423.405ZM674.205 427.74L676.305 426.738L674.151 422.225L672.051 423.227L674.205 427.74ZM676.257 425.206L674.976 423.8L671.28 427.167L672.561 428.573L676.257 425.206ZM652.997 449.78L676.093 428.738L672.725 425.042L649.629 446.084L652.997 449.78ZM646.098 445.92L649.465 449.616L653.161 446.248L649.794 442.552L646.098 445.92ZM669.358 421.346L646.262 442.388L649.629 446.084L672.725 425.042L669.358 421.346ZM671.847 419.077L669.358 421.346L672.725 425.042L675.215 422.773L671.847 419.077ZM508.127 422.024L535.583 366.893L531.107 364.664L503.651 419.795L508.127 422.024ZM507.014 424.26L508.127 422.024L503.651 419.795L502.538 422.031L507.014 424.26ZM501.427 424.273L503.663 425.384L505.888 420.906L503.651 419.795L501.427 424.273ZM485.884 416.551L501.427 424.273L503.651 419.795L488.108 412.073L485.884 416.551ZM486.982 408.721L484.757 413.199L489.235 415.424L491.46 410.946L486.982 408.721ZM503.639 414.206L490.333 407.595L488.108 412.073L501.415 418.684L503.639 414.206ZM526.631 362.435L500.289 415.33L504.765 417.559L531.107 364.664L526.631 362.435ZM534.46 363.54L529.984 361.311L527.755 365.787L532.231 368.016L534.46 363.54ZM505.876 415.317L503.639 414.206L501.415 418.684L503.651 419.795L505.876 415.317ZM558.789 441.606L505.876 415.317L503.651 419.795L556.564 446.084L558.789 441.606ZM557.691 449.435L559.915 444.958L555.438 442.733L553.213 447.211L557.691 449.435ZM503.663 425.384L554.339 450.562L556.564 446.084L505.888 420.906L503.663 425.384ZM506.737 424.816L507.014 424.26L502.538 422.031L502.261 422.587L506.737 424.816ZM498.909 423.71L503.384 425.939L505.613 421.464L501.138 419.235L498.909 423.71ZM499.176 417.566L497.785 420.358L502.261 422.587L503.651 419.795L499.176 417.566ZM500.289 415.33L499.176 417.566L503.651 419.795L504.765 417.559L500.289 415.33Z" fill="black"/>
<path opacity="0.203218" fill-rule="evenodd" clip-rule="evenodd" d="M604.236 358.667C604.236 363.422 600.363 367.274 595.585 367.274C590.805 367.274 586.932 363.422 586.932 358.667C586.932 353.914 595.585 341.806 595.585 341.806C595.585 341.806 604.236 353.914 604.236 358.667" fill="black"/>
<path opacity="0.195964" d="M520.27 530.072C520.27 530.072 556.371 529.585 556.564 441.182" stroke="black" stroke-width="5"/>
<path opacity="0.199009" d="M678.756 525.945C678.756 525.945 651.245 525.5 651.098 444.775" stroke="black" stroke-width="5"/>
<path opacity="0.203497" d="M597.43 367.274C602.785 405.691 617.037 442.557 607.831 572.508" stroke="black" stroke-width="3"/>
<path fill-rule="evenodd" clip-rule="evenodd" d="M483.002 317.644C483.002 317.644 492.265 272.152 551.347 272.27C579.059 272.326 584.851 287.625 583.188 303.857C583.14 304.325 581.4 304.086 580.305 303.935C580.065 303.902 579.855 303.873 579.701 303.857C575.501 303.418 573.866 303.327 571.205 303.179C570.714 303.152 570.187 303.123 569.604 303.089C569.5 303.083 569.396 303.078 569.292 303.072L594.777 331.133L611.226 287.941L644.271 316.236L594.168 347.873C594.168 347.873 541.9 315.043 524.701 304.83L483.002 317.644ZM678.737 550.779H607.24H520.497L521.88 530.633C543.64 522.978 555.954 496.82 555.582 441.181L605.255 441.911L649.197 442.557C649.63 491.233 658.536 513.245 677.354 529.257L678.737 550.779Z" fill="#EFEFEF"/>
<path opacity="0.201474" d="M597.43 367.274C603.207 402.14 617.137 442.234 607.931 572.184" stroke="black" stroke-width="3"/>
</g>
<defs>
<clipPath id="clip0_2_3666">
<rect width="1108" height="1324" fill="white"/>
</clipPath>
</defs>
</svg>
